<svg xmlns="http://www.w3.org/2000/svg" xmlns:xlink="http://www.w3.org/1999/xlink" width="1920" zoomAndPan="magnify" viewBox="0 0 1440 427.499982" height="570" preserveAspectRatio="xMidYMid meet" version="1.0"><defs><clipPath id="8a4f4bb8d9"><path d="M 186 16.375 L 306 16.375 L 306 318 L 186 318 Z M 186 16.375 " clip-rule="nonzero"/></clipPath></defs><path fill="#ffffff" d="M 832.539062 319.003906 L 832.539062 193.726562 L 787.777344 193.726562 L 787.777344 168.21875 L 907.667969 168.21875 L 907.667969 193.726562 L 863.003906 193.726562 L 863.003906 319.003906 Z M 832.539062 319.003906 " fill-opacity="1" fill-rule="nonzero"/><path fill="#ffffff" d="M 1036.671875 170.074219 L 928.941406 170.074219 L 928.941406 199.496094 L 1036.671875 199.496094 Z M 1036.671875 170.074219 " fill-opacity="1" fill-rule="nonzero"/><path fill="#ffffff" d="M 1036.671875 290.957031 L 928.941406 290.957031 L 928.941406 320.429688 L 1036.671875 320.429688 Z M 1036.671875 290.957031 " fill-opacity="1" fill-rule="nonzero"/><path fill="#9050ff" d="M 1036.671875 231.578125 L 928.941406 231.578125 L 928.941406 261.097656 L 1036.671875 261.097656 Z M 1036.671875 231.578125 " fill-opacity="1" fill-rule="nonzero"/><path fill="#ffffff" d="M 1158.773438 167.09375 C 1160.089844 167.464844 1160.089844 167.464844 1161.425781 167.847656 C 1163.445312 168.4375 1165.453125 169.050781 1167.460938 169.703125 C 1167.460938 170.277344 1167.460938 170.855469 1167.460938 171.445312 C 1168.199219 171.519531 1168.9375 171.59375 1169.699219 171.667969 C 1173.097656 172.410156 1175.570312 173.832031 1178.414062 175.746094 C 1179.203125 176.265625 1179.203125 176.265625 1180.007812 176.796875 C 1191.117188 184.28125 1204.792969 194.988281 1208.890625 208.328125 C 1209.011719 209.035156 1209.011719 209.035156 1209.132812 209.757812 C 1208.503906 209.96875 1207.871094 210.179688 1207.222656 210.398438 C 1202.449219 212.054688 1198.535156 213.8125 1194.367188 216.722656 C 1189.863281 218.777344 1185.34375 219.347656 1180.476562 218.464844 C 1173.585938 215.4375 1167.425781 210.644531 1161.300781 206.289062 C 1149.957031 198.410156 1136.679688 197.523438 1123.269531 199.910156 C 1110.601562 203.511719 1100.429688 211.269531 1093.972656 222.730469 C 1087.863281 234.515625 1085.800781 248.746094 1089.863281 261.675781 C 1090.503906 263.253906 1091.1875 264.816406 1091.925781 266.355469 C 1092.503906 267.597656 1092.503906 267.597656 1093.101562 268.867188 C 1097.429688 277.414062 1102.753906 283.320312 1111.023438 288.125 C 1111.699219 288.519531 1112.382812 288.914062 1113.085938 289.320312 C 1125.097656 295.808594 1137.109375 296.65625 1150.132812 292.882812 C 1158.210938 290.085938 1165.980469 285.46875 1172.246094 279.664062 C 1176.984375 275.539062 1181.949219 274.351562 1188.160156 274.550781 C 1192.292969 275.324219 1195.355469 277.292969 1198.847656 279.570312 C 1202.113281 281.671875 1205.542969 283.175781 1209.132812 284.640625 C 1205.265625 291.898438 1200.964844 297.910156 1195.242188 303.796875 C 1194.507812 304.570312 1193.769531 305.339844 1193.015625 306.136719 C 1192.320312 306.800781 1191.617188 307.464844 1190.898438 308.148438 C 1190.445312 308.601562 1189.988281 309.050781 1189.523438 309.515625 C 1176.035156 322.246094 1156.484375 329.613281 1138.152344 329.375 C 1137.164062 329.367188 1136.179688 329.355469 1135.160156 329.347656 C 1110.953125 328.902344 1092.3125 319.863281 1075.367188 302.863281 C 1059.242188 285.683594 1053.175781 264.148438 1053.484375 241.023438 C 1054.160156 220.136719 1064.546875 201.757812 1078.898438 187.121094 C 1079.546875 186.457031 1080.195312 185.796875 1080.863281 185.117188 C 1085.046875 181.101562 1089.496094 177.886719 1094.417969 174.875 C 1094.972656 174.53125 1095.535156 174.1875 1096.105469 173.832031 C 1099.078125 172.089844 1100.554688 171.445312 1104.078125 171.445312 C 1104.078125 170.871094 1104.078125 170.296875 1104.078125 169.703125 C 1121.699219 163.585938 1140.679688 161.535156 1158.773438 167.09375 Z M 1158.773438 167.09375 " fill-opacity="1" fill-rule="nonzero"/><path fill="#9050ff" d="M 1146.386719 225.242188 C 1148.804688 226.921875 1151.148438 228.679688 1153.492188 230.460938 C 1161.496094 236.417969 1169.953125 240.167969 1180.117188 238.804688 C 1184.582031 237.738281 1188.6875 235.46875 1192.679688 233.234375 C 1198.085938 230.277344 1202.621094 229.347656 1208.640625 230.992188 C 1213.199219 233.457031 1216.382812 236.234375 1218.75 241.007812 C 1219.558594 247.628906 1219.164062 252.582031 1215.03125 257.925781 C 1211.453125 261.726562 1208.257812 263.277344 1203.050781 263.753906 C 1195.929688 263.546875 1189.804688 259.445312 1183.738281 256.027344 C 1178.484375 253.375 1170.621094 254.859375 1165.144531 256.246094 C 1159.246094 258.238281 1154.519531 261.699219 1149.605469 265.453125 C 1142.480469 270.886719 1136.773438 272.792969 1127.726562 271.929688 C 1121.234375 270.675781 1116.257812 266.488281 1112.339844 261.242188 C 1107.957031 254.425781 1108.003906 248.171875 1108.46875 240.125 C 1110.125 233.441406 1115.347656 227.480469 1121.035156 223.757812 C 1129.667969 219.761719 1138.363281 220.28125 1146.386719 225.242188 Z M 1146.386719 225.242188 " fill-opacity="1" fill-rule="nonzero"/><path fill="#ffffff" d="M 1335.300781 235.589844 L 1335.300781 257.804688 L 1256.472656 257.804688 L 1256.472656 235.589844 Z M 1264.1875 173.773438 L 1264.1875 323.53125 L 1235.886719 323.53125 L 1235.886719 173.773438 Z M 1356.296875 173.773438 L 1356.296875 323.53125 L 1327.992188 323.53125 L 1327.992188 173.773438 Z M 1356.296875 173.773438 " fill-opacity="1" fill-rule="nonzero"/><path fill="#9050ff" d="M 635.183594 175.632812 L 680.902344 271.484375 L 728.597656 175.632812 L 765.65625 175.632812 L 700.648438 306.238281 C 698.324219 310.542969 695.5625 314.328125 692.445312 317.464844 C 689.203125 320.773438 685.15625 322.429688 680.296875 322.429688 C 675.535156 322.429688 671.558594 320.882812 668.371094 317.789062 C 665.179688 314.695312 662.421875 310.777344 660.246094 306.238281 L 596.605469 175.632812 Z M 635.183594 175.632812 " fill-opacity="1" fill-rule="nonzero"/><path fill="#9050ff" d="M 413.695312 246.910156 C 413.695312 257.691406 412.074219 267.695312 408.828125 276.921875 C 405.609375 286.105469 401.046875 294.253906 395.425781 300.84375 C 389.734375 307.5625 382.953125 312.84375 375.082031 316.679688 C 367.210938 320.515625 358.648438 322.433594 349.390625 322.4375 L 277.902344 322.4375 L 277.902344 230.078125 L 311.09375 230.078125 L 311.09375 284.34375 L 349.390625 284.34375 C 353.960938 284.34375 358.191406 283.492188 362.078125 281.796875 C 365.964844 280.097656 369.289062 277.695312 372.050781 274.585938 C 374.78125 271.546875 377.007812 267.734375 378.59375 263.402344 C 380.1875 259.050781 380.984375 254.214844 380.984375 248.894531 C 381.015625 243.902344 380.195312 238.96875 378.59375 234.496094 C 376.988281 230.058594 374.699219 226.164062 371.890625 223.089844 C 369.023438 219.917969 365.671875 217.40625 361.835938 215.558594 C 358 213.714844 353.851562 212.792969 349.390625 212.792969 L 277.902344 212.792969 L 298.964844 174.253906 L 349.390625 174.253906 C 358.75 174.253906 367.367188 176.027344 375.242188 179.570312 C 383.117188 183.113281 389.898438 188.097656 395.585938 194.519531 C 401.175781 200.769531 405.722656 208.628906 408.910156 217.554688 C 412.101562 226.496094 413.695312 236.28125 413.695312 246.910156 Z M 413.695312 246.910156 " fill-opacity="1" fill-rule="nonzero"/><path fill="#9050ff" d="M 563.351562 284.332031 L 542.953125 322.429688 L 444.183594 322.429688 L 444.183594 174.246094 L 563.042969 174.246094 L 542.492188 212.789062 L 476.085938 212.789062 L 476.085938 230.507812 L 557.371094 230.507812 L 539.125 264.175781 L 476.085938 264.175781 L 476.085938 284.332031 Z M 563.351562 284.332031 " fill-opacity="1" fill-rule="nonzero"/><path fill="#9050ff" d="M 396.585938 171.613281 C 358.480469 145.746094 320.085938 142.128906 282.308594 168.132812 C 249.714844 190.578125 240.113281 223.5625 245.066406 261.269531 C 234.894531 245.886719 229.375 212.085938 233.957031 187.269531 C 244.644531 129.351562 279.625 92.210938 335.179688 75.902344 C 377.539062 63.460938 421.355469 58.9375 465.675781 64.050781 C 468.609375 64.390625 471.511719 65.019531 476.757812 65.90625 Z M 396.585938 171.613281 " fill-opacity="1" fill-rule="nonzero"/><path fill="#9050ff" d="M 178.164062 122.917969 C 178.117188 123.113281 178.070312 123.308594 178.019531 123.503906 C 177.847656 124.21875 177.667969 124.933594 177.507812 125.652344 C 177.597656 125.234375 177.703125 124.78125 177.820312 124.292969 C 177.828125 124.257812 177.839844 124.21875 177.847656 124.179688 C 177.894531 124.011719 177.933594 123.839844 177.980469 123.65625 C 177.992188 123.601562 178.007812 123.550781 178.023438 123.488281 C 178.070312 123.308594 178.113281 123.117188 178.164062 122.917969 Z M 178.164062 122.917969 " fill-opacity="1" fill-rule="nonzero"/><path fill="#9050ff" d="M 123.03125 182.925781 L 123.03125 182.9375 L 61.738281 174.484375 L 106.5 180.648438 Z M 123.03125 182.925781 " fill-opacity="1" fill-rule="nonzero"/><path fill="#9050ff" d="M 358.566406 331.5 C 358.566406 331.5 223.175781 445.929688 118.5625 309.257812 L 101.527344 361.824219 C 101.527344 361.824219 243.390625 477.996094 358.566406 331.5 Z M 358.566406 331.5 " fill-opacity="1" fill-rule="nonzero"/><g clip-path="url(#8a4f4bb8d9)"><path fill="#9050ff" d="M 273.367188 317.75 C 210.339844 294.328125 175.125 224.148438 189.535156 159.308594 C 191.890625 148.714844 195.503906 138.441406 200.289062 128.703125 C 222.058594 84.371094 254.21875 47.460938 292.785156 16.375 L 305.074219 84.195312 C 249.945312 113.28125 233.734375 159.347656 233.25 160.773438 C 233.25 160.785156 233.242188 160.796875 233.238281 160.804688 C 228.984375 171.410156 226.007812 182.910156 224.417969 195.320312 C 224.242188 196.679688 224.085938 198.03125 223.945312 199.371094 C 219.019531 246.070312 234.472656 286.894531 273.367188 317.75 Z M 273.367188 317.75 " fill-opacity="1" fill-rule="nonzero"/></g><path fill="#9050ff" d="M 349.277344 331.113281 C 349.277344 331.113281 197.328125 454.929688 86.5 246.488281 C 86.484375 246.457031 86.46875 246.425781 86.449219 246.398438 C 80.398438 234.992188 74.472656 222.566406 68.675781 209.132812 L 68.675781 209.121094 L 129.96875 217.574219 C 129.96875 217.589844 129.96875 217.605469 129.96875 217.617188 C 129.96875 217.628906 129.96875 217.636719 129.96875 217.644531 C 129.96875 217.675781 129.980469 217.710938 129.988281 217.753906 C 129.988281 217.761719 129.988281 217.769531 129.988281 217.777344 C 130 217.828125 130.007812 217.890625 130.023438 217.960938 C 130.023438 217.960938 130.03125 218.007812 130.039062 218.03125 C 131.246094 224.558594 145.769531 296.21875 204.550781 329.488281 C 222.792969 340.0625 245.257812 346.863281 272.832031 346.664062 C 276.910156 346.675781 281.015625 346.496094 285.148438 346.125 C 300.660156 344.902344 317.65625 341.554688 336.292969 335.582031 C 340.539062 334.234375 344.867188 332.746094 349.277344 331.113281 Z M 349.277344 331.113281 " fill-opacity="1" fill-rule="nonzero"/><path fill="#9050ff" d="M 123.046875 183.019531 C 123.046875 183.050781 123.058594 183.089844 123.066406 183.132812 C 123.058594 183.089844 123.050781 183.050781 123.046875 183.019531 Z M 123.046875 183.019531 " fill-opacity="1" fill-rule="nonzero"/><path fill="#9050ff" d="M 278.230469 311.507812 C 274.097656 311.882812 269.992188 312.0625 265.914062 312.046875 C 269.910156 312.019531 274.015625 311.839844 278.230469 311.507812 Z M 278.230469 311.507812 " fill-opacity="1" fill-rule="nonzero"/><path fill="#9050ff" d="M 308.96875 331.503906 C 293.183594 330.269531 276.671875 327.761719 264.222656 322.6875 C 261.605469 321.621094 259.042969 320.421875 256.550781 319.089844 C 198.410156 288.058594 169.75 223.722656 184.386719 160.453125 C 184.398438 160.394531 184.414062 160.335938 184.429688 160.273438 C 184.519531 159.851562 184.625 159.398438 184.742188 158.910156 C 184.75 158.875 184.757812 158.835938 184.769531 158.800781 C 184.8125 158.628906 184.855469 158.460938 184.902344 158.277344 C 184.914062 158.21875 184.929688 158.167969 184.941406 158.105469 C 184.992188 157.917969 185.042969 157.726562 185.09375 157.527344 C 185.097656 157.519531 185.101562 157.507812 185.101562 157.5 C 186.871094 150.84375 190.3125 140.632812 190.3125 140.632812 L 174.773438 128.851562 L 133.539062 97.582031 L 132.121094 96.511719 C 132.121094 96.511719 132.121094 96.535156 132.121094 96.585938 C 132.121094 96.601562 132.121094 96.625 132.121094 96.648438 C 131.6875 100.480469 122.671875 183.410156 148.65625 251.105469 C 148.660156 251.117188 148.664062 251.125 148.667969 251.136719 C 150.335938 255.480469 152.152344 259.753906 154.117188 263.953125 C 154.117188 263.953125 154.117188 263.953125 154.117188 263.964844 C 154.828125 265.402344 155.566406 266.8125 156.328125 268.199219 C 156.328125 268.207031 156.332031 268.214844 156.339844 268.21875 C 156.34375 268.234375 156.351562 268.25 156.363281 268.265625 C 156.382812 268.300781 156.414062 268.355469 156.453125 268.421875 C 156.488281 268.492188 156.507812 268.527344 156.542969 268.59375 L 156.59375 268.6875 C 157.785156 270.777344 162.828125 279.398438 171.21875 289.816406 C 179.945312 300.664062 192.292969 313.480469 207.664062 322.949219 C 207.664062 322.949219 207.710938 322.980469 207.785156 323.023438 C 207.824219 323.046875 207.863281 323.070312 207.902344 323.09375 L 208.058594 323.191406 L 208.480469 323.445312 C 208.558594 323.492188 208.636719 323.539062 208.714844 323.582031 C 208.753906 323.609375 208.796875 323.632812 208.835938 323.65625 C 211.511719 325.21875 218.597656 329.109375 228.613281 332.722656 C 240.203125 336.910156 255.71875 340.714844 272.851562 340.113281 C 291.082031 340.71875 311.625 338.429688 334.777344 332.601562 C 327.039062 332.503906 318.125 332.21875 308.96875 331.503906 Z M 308.96875 331.503906 " fill-opacity="1" fill-rule="nonzero"/><path fill="#9050ff" d="M 164.285156 255.199219 C 158.71875 248.660156 153.824219 241.582031 149.664062 234.070312 C 150.839844 236.160156 155.890625 244.773438 164.285156 255.199219 Z M 164.285156 255.199219 " fill-opacity="1" fill-rule="nonzero"/><path fill="#9050ff" d="M 327.839844 297.984375 C 320.109375 297.882812 311.195312 297.597656 302.035156 296.882812 Z M 327.839844 297.984375 " fill-opacity="1" fill-rule="nonzero"/><path fill="#9050ff" d="M 147.175781 229.347656 C 145.109375 225.1875 143.289062 220.90625 141.730469 216.53125 C 143.394531 220.871094 145.210938 225.140625 147.175781 229.347656 Z M 147.175781 229.347656 " fill-opacity="1" fill-rule="nonzero"/><path fill="#9050ff" d="M 178.019531 123.5 C 177.847656 124.21875 177.667969 124.933594 177.507812 125.652344 C 177.597656 125.234375 177.703125 124.777344 177.820312 124.292969 C 177.828125 124.253906 177.839844 124.21875 177.847656 124.179688 C 177.894531 124.011719 177.933594 123.839844 177.980469 123.65625 C 177.992188 123.601562 178.007812 123.546875 178.023438 123.488281 Z M 178.019531 123.5 " fill-opacity="1" fill-rule="nonzero"/><path fill="#9050ff" d="M 327.839844 297.984375 C 320.109375 297.882812 311.195312 297.597656 302.035156 296.882812 Z M 327.839844 297.984375 " fill-opacity="1" fill-rule="nonzero"/></svg>